<svg xmlns="http://www.w3.org/2000/svg" width="800" height="1200" viewBox="0 0 800 1200">
  <defs>
    <linearGradient id="bg" x1="0" x2="1" y1="0" y2="1">
      <stop offset="0" stop-color="#0A3D91"/>
      <stop offset="1" stop-color="#070b14"/>
    </linearGradient>
    <radialGradient id="green" cx="65%" cy="18%" r="75%">
      <stop offset="0" stop-color="#22C55E" stop-opacity="0.65"/>
      <stop offset="1" stop-color="#22C55E" stop-opacity="0"/>
    </radialGradient>
  </defs>
  <rect width="800" height="1200" fill="url(#bg)"/>
  <rect width="800" height="1200" fill="url(#green)"/>
  <g opacity="0.22" fill="#22C55E">
    <rect x="90" y="190" width="260" height="16" rx="8"/>
    <rect x="90" y="230" width="460" height="16" rx="8"/>
    <rect x="90" y="270" width="360" height="16" rx="8"/>
  </g>
  <g opacity="0.3" stroke="#22C55E" stroke-width="14" fill="none" stroke-linecap="round">
    <path d="M110 790 C 240 650, 390 740, 520 570 C 650 400, 710 510, 740 330"/>
  </g>
  <g>
    <rect x="70" y="900" width="660" height="220" rx="26" fill="rgba(0,0,0,0.35)"/>
    <text x="110" y="980" font-family="ui-sans-serif, system-ui, -apple-system, Segoe UI, Roboto, Helvetica, Arial" font-size="54" font-weight="900" fill="#F3F7FF">Popcorn Protocol</text>
    <text x="110" y="1035" font-family="ui-sans-serif, system-ui, -apple-system, Segoe UI, Roboto, Helvetica, Arial" font-size="28" font-weight="700" fill="#22C55E">2018 " Spy</text>
    <text x="110" y="1090" font-family="ui-sans-serif, system-ui, -apple-system, Segoe UI, Roboto, Helvetica, Arial" font-size="24" font-weight="600" fill="rgba(243,247,255,0.8)">Snack science stops a plot thats about to pop off.</text>
  </g>
  <g>
    <rect x="70" y="60" width="240" height="60" rx="30" fill="rgba(0,0,0,0.35)"/>
    <text x="105" y="102" font-family="ui-sans-serif, system-ui, -apple-system, Segoe UI, Roboto, Helvetica, Arial" font-size="28" font-weight="900" fill="#F3F7FF">PG13</text>
    <text x="210" y="102" font-family="ui-sans-serif, system-ui, -apple-system, Segoe UI, Roboto, Helvetica, Arial" font-size="24" font-weight="800" fill="rgba(243,247,255,0.85)">BB</text>
  </g>
</svg>
